<svg xmlns="http://www.w3.org/2000/svg" xmlns:xlink="http://www.w3.org/1999/xlink" viewBox="0 0 950 847" width="399" height="399" preserveAspectRatio="xMidYMid meet" style="width: 100%; height: 100%; transform: translate3d(0px, 0px, 0px); content-visibility: visible;"><defs><clipPath id="__lottie_element_2"><rect width="950" height="847" x="0" y="0"/></clipPath></defs><g clip-path="url(#__lottie_element_2)"><g transform="matrix(1,0,0,1,480,422)" opacity="1" style="display: block;"><g opacity="1" transform="matrix(1,0,0,1,0,0)"><g opacity="1" transform="matrix(1,0,0,1,0,0)"><path fill="rgb(170,255,0)" fill-opacity="1" d=" M-444.7409973144531,28.201000213623047 C-444.7409973144531,28.201000213623047 -439.91400146484375,177.8509979248047 -314.989013671875,277.59698486328125 C-190.06399536132812,377.3420104980469 -16.957000732421875,384.4859924316406 123.18199920654297,393.96099853515625 C263.32000732421875,403.4360046386719 370.9590148925781,324.10400390625 387.1820068359375,204.1820068359375 C403.40399169921875,84.26100158691406 296.3210144042969,49.05699920654297 238.2220001220703,-87.45099639892578 C180.1230010986328,-223.9600067138672 185.29200744628906,-268.8320007324219 62.36000061035156,-352.7909851074219 C-60.571998596191406,-436.75 -252.8780059814453,-385.1960144042969 -353.7049865722656,-241.36199951171875 C-454.531005859375,-97.5270004272461 -444.7409973144531,28.201000213623047 -444.7409973144531,28.201000213623047z"/></g><g opacity="0.7000000000000001" transform="matrix(1,0,0,1,0,0)"><path fill="rgb(255,255,255)" fill-opacity="1" d=" M-444.7409973144531,28.201000213623047 C-444.7409973144531,28.201000213623047 -439.91400146484375,177.8509979248047 -314.989013671875,277.59698486328125 C-190.06399536132812,377.3420104980469 -16.957000732421875,384.4859924316406 123.18199920654297,393.96099853515625 C263.32000732421875,403.4360046386719 370.9590148925781,324.10400390625 387.1820068359375,204.1820068359375 C403.40399169921875,84.26100158691406 296.3210144042969,49.05699920654297 238.2220001220703,-87.45099639892578 C180.1230010986328,-223.9600067138672 185.29200744628906,-268.8320007324219 62.36000061035156,-352.7909851074219 C-60.571998596191406,-436.75 -252.8780059814453,-385.1960144042969 -353.7049865722656,-241.36199951171875 C-454.531005859375,-97.5270004272461 -444.7409973144531,28.201000213623047 -444.7409973144531,28.201000213623047z"/></g></g><g opacity="1" transform="matrix(1,0,0,1,0,0)"><g opacity="1" transform="matrix(1,0,0,1,0,0)"><path stroke-linecap="butt" stroke-linejoin="miter" fill-opacity="0" stroke-miterlimit="10" stroke="rgb(26,46,53)" stroke-opacity="1" stroke-width="1.113" d=" M-387.8909912109375,269.85198974609375 C-387.8909912109375,269.85198974609375 -406.7869873046875,269.85198974609375 -406.7869873046875,269.85198974609375"/></g><g opacity="1" transform="matrix(1,0,0,1,0,0)"><path stroke-linecap="butt" stroke-linejoin="miter" fill-opacity="0" stroke-miterlimit="10" stroke="rgb(26,46,53)" stroke-opacity="1" stroke-width="1.113" d=" M377.7820129394531,269.85198974609375 C377.7820129394531,269.85198974609375 -357.97601318359375,269.85198974609375 -357.97601318359375,269.85198974609375"/></g></g></g><g transform="matrix(0.9996097683906555,0.02793307974934578,-0.02793307974934578,0.9996097683906555,487.04400634765625,414.6747131347656)" opacity="1" style="display: block;"><g opacity="1" transform="matrix(1,0,0,1,0,0)"><path fill="rgb(170,255,0)" fill-opacity="1" d=" M213.50599670410156,147.0290069580078 C213.50599670410156,147.0290069580078 208.46499633789062,130.64500427246094 193.76100158691406,124.76399993896484 C183.54200744628906,120.6760025024414 171.7779998779297,121.74500274658203 161.19200134277344,123.58699798583984 C141.46299743652344,127.01899719238281 124.24800109863281,134.86300659179688 105.54299926757812,141.5679931640625 C105.54299926757812,141.5679931640625 113.52400207519531,138.6269989013672 146.29100036621094,154.58999633789062 C158.36000061035156,160.47000122070312 172.16200256347656,165.03199768066406 185.96200561523438,164.72300720214844 C197.0500030517578,164.47500610351562 214.03500366210938,161.3179931640625 213.50599670410156,147.0290069580078z"/></g><g opacity="1" transform="matrix(1,0,0,1,0,0)"><path fill="rgb(170,255,0)" fill-opacity="1" d=" M215.2830047607422,98.89600372314453 C215.2830047607422,98.89600372314453 215.18899536132812,81.75499725341797 202.81100463867188,71.87699890136719 C194.20799255371094,65.01100158691406 182.63699340820312,62.63600158691406 171.97000122070312,61.340999603271484 C152.09100341796875,58.928001403808594 133.34300231933594,61.4640007019043 113.4990005493164,62.48099899291992 C113.4990005493164,62.48099899291992 121.98999786376953,61.97100067138672 148.74899291992188,86.71900177001953 C158.60499572753906,95.83399963378906 170.5,104.18900299072266 183.80099487304688,107.87999725341797 C194.48800659179688,110.84500122070312 211.66200256347656,112.72899627685547 215.2830047607422,98.89600372314453z"/></g><g opacity="1" transform="matrix(1,0,0,1,0,0)"><path fill="rgb(170,255,0)" fill-opacity="1" d=" M249.15699768066406,162.5449981689453 C249.15699768066406,162.5449981689453 235.78700256347656,151.81900024414062 235.74099731445312,135.98199462890625 C235.70899963378906,124.97599792480469 241.0399932861328,114.43399810791016 246.65499877929688,105.27300262451172 C257.1189880371094,88.19999694824219 270.75799560546875,75.08899688720703 283.88800048828125,60.17499923706055 C283.88800048828125,60.17499923706055 278.21099853515625,66.51000213623047 280.968994140625,102.85399627685547 C281.9849853515625,116.24099731445312 281.135986328125,130.7519989013672 275.760986328125,143.46600341796875 C271.4419860839844,153.68099975585938 262.2439880371094,168.30599975585938 249.15699768066406,162.5449981689453z"/></g><g opacity="1" transform="matrix(1,0,0,1,0,0)"><path stroke-linecap="round" stroke-linejoin="round" fill-opacity="0" stroke="rgb(26,46,53)" stroke-opacity="1" stroke-width="1.113" d=" M267.239990234375,251.7469940185547 C267.239990234375,251.7469940185547 237.8040008544922,179.28799438476562 237.8040008544922,179.28799438476562 C237.8040008544922,179.28799438476562 203.83999633789062,95.50800323486328 203.83999633789062,95.50800323486328"/></g><g opacity="1" transform="matrix(1,0,0,1,0,0)"><path stroke-linecap="round" stroke-linejoin="round" fill-opacity="0" stroke="rgb(26,46,53)" stroke-opacity="1" stroke-width="1.113" d=" M243.46499633789062,192.87399291992188 C243.46499633789062,192.87399291992188 255.91900634765625,143.0590057373047 255.91900634765625,143.0590057373047"/></g><g opacity="1" transform="matrix(1,0,0,1,0,0)"><path stroke-linecap="round" stroke-linejoin="round" fill-opacity="0" stroke="rgb(26,46,53)" stroke-opacity="1" stroke-width="1.113" d=" M226.94900512695312,155.00999450683594 C226.94900512695312,155.00999450683594 198.17799377441406,139.66200256347656 198.17799377441406,139.66200256347656"/></g></g><g transform="matrix(0.9996097683906555,-0.02793307974934578,0.02793307974934578,0.9996097683906555,473.4784851074219,429.74151611328125)" opacity="1" style="display: block;"><g opacity="1" transform="matrix(1,0,0,1,0,0)"><path fill="rgb(170,255,0)" fill-opacity="1" d=" M296.5050048828125,188.8699951171875 C296.5050048828125,188.8699951171875 294.6159973144531,171.83299255371094 305.76800537109375,160.58900451660156 C313.5190124511719,152.77499389648438 324.7380065917969,149.0780029296875 335.1839904785156,146.55799865722656 C354.6499938964844,141.86199951171875 373.56500244140625,142.21200561523438 393.3940124511719,140.927001953125 C393.3940124511719,140.927001953125 384.9010009765625,141.4029998779297 361.1839904785156,169.0800018310547 C352.447998046875,179.2740020751953 341.6000061035156,188.947998046875 328.8139953613281,194.15199279785156 C318.5419921875,198.33299255371094 301.7019958496094,202.1909942626953 296.5050048828125,188.8699951171875z"/></g><g opacity="1" transform="matrix(1,0,0,1,0,0)"><path fill="rgb(170,255,0)" fill-opacity="1" d=" M293.4020080566406,128.14199829101562 C293.4020080566406,128.14199829101562 276.4209899902344,125.80699920654297 268.24700927734375,112.24299621582031 C262.5660095214844,102.81600189208984 261.72601318359375,91.03299713134766 261.8380126953125,80.28800201416016 C262.0469970703125,60.263999938964844 267.0140075683594,42.00899887084961 270.6180114746094,22.4689998626709 C270.6180114746094,22.4689998626709 269.00201416015625,30.820999145507812 290.0360107421875,60.5880012512207 C297.7829895019531,71.552001953125 304.5090026855469,84.43800354003906 306.4280090332031,98.10800170898438 C307.968994140625,109.09100341796875 307.5889892578125,126.36299896240234 293.4020080566406,128.14199829101562z"/></g><g opacity="1" transform="matrix(1,0,0,1,0,0)"><path fill="rgb(170,255,0)" fill-opacity="1" d=" M342.2749938964844,97.6449966430664 C342.2749938964844,97.6449966430664 354.489013671875,109.6709976196289 370.2229919433594,107.86799621582031 C381.1579895019531,106.61399841308594 391.00299072265625,100.08999633789062 399.4469909667969,93.44300079345703 C415.1820068359375,81.05699920654297 426.6109924316406,65.98100280761719 439.8900146484375,51.20000076293945 C439.8900146484375,51.20000076293945 434.2619934082031,57.57699966430664 397.843994140625,59.082000732421875 C384.4309997558594,59.637001037597656 370.1180114746094,62.17300033569336 358.1180114746094,68.99600219726562 C348.47698974609375,74.47799682617188 335.0260009765625,85.31900024414062 342.2749938964844,97.6449966430664z"/></g><g opacity="1" transform="matrix(1,0,0,1,0,0)"><path fill="rgb(170,255,0)" fill-opacity="1" d=" M328.1319885253906,85.75499725341797 C328.1319885253906,85.75499725341797 345.18701171875,87.46900177001953 356.31500244140625,76.20099639892578 C364.04901123046875,68.37000274658203 367.6310119628906,57.112998962402344 370.0429992675781,46.641998291015625 C374.5379943847656,27.128000259399414 373.9930114746094,8.218000411987305 375.0740051269531,-11.623000144958496 C375.0740051269531,-11.623000144958496 374.68499755859375,-3.125999927520752 347.2539978027344,20.875 C337.1510009765625,29.71500015258789 327.5889892578125,40.66400146484375 322.5169982910156,53.50199890136719 C318.4419860839844,63.816001892089844 314.75799560546875,80.69599914550781 328.1319885253906,85.75499725341797z"/></g><g opacity="1" transform="matrix(1,0,0,1,0,0)"><path stroke-linecap="round" stroke-linejoin="round" fill-opacity="0" stroke="rgb(26,46,53)" stroke-opacity="1" stroke-width="1.113" d=" M274.03399658203125,239.29299926757812 C274.03399658203125,239.29299926757812 303.4700012207031,138.52999877929688 303.4700012207031,138.52999877929688 C303.4700012207031,138.52999877929688 335.1709899902344,76.26100158691406 335.1709899902344,76.26100158691406"/></g><g opacity="1" transform="matrix(1,0,0,1,0,0)"><path stroke-linecap="round" stroke-linejoin="round" fill-opacity="0" stroke="rgb(26,46,53)" stroke-opacity="1" stroke-width="1.113" d=" M285.3559875488281,199.66700744628906 C285.3559875488281,199.66700744628906 314.7919921875,182.68499755859375 314.7919921875,182.68499755859375"/></g><g opacity="1" transform="matrix(1,0,0,1,0,0)"><path stroke-linecap="round" stroke-linejoin="round" fill-opacity="0" stroke="rgb(26,46,53)" stroke-opacity="1" stroke-width="1.113" d=" M303.4700012207031,138.52999877929688 C303.4700012207031,138.52999877929688 288.75201416015625,105.6969985961914 288.75201416015625,105.6969985961914"/></g><g opacity="1" transform="matrix(1,0,0,1,0,0)"><path stroke-linecap="round" stroke-linejoin="round" fill-opacity="0" stroke="rgb(26,46,53)" stroke-opacity="1" stroke-width="1.113" d=" M321.8900146484375,105.86000061035156 C321.8900146484375,105.86000061035156 357.8139953613281,89.84700012207031 357.8139953613281,89.84700012207031"/></g></g><g transform="matrix(1,0,0,1,479.9999694824219,422)" opacity="1" style="display: block;"><g opacity="1" transform="matrix(1,0,0,1,0,0)"><path fill="rgb(26,46,53)" fill-opacity="1" d=" M282.34698486328125,287.97601318359375 C282.34698486328125,287.97601318359375 257.79400634765625,287.97601318359375 257.79400634765625,287.97601318359375 C249.51400756835938,287.97601318359375 242.406005859375,282.0880126953125 240.86300659179688,273.9530029296875 C240.86300659179688,273.9530029296875 232.1439971923828,227.9709930419922 232.1439971923828,227.9709930419922 C232.1439971923828,227.9709930419922 307.9989929199219,227.9709930419922 307.9989929199219,227.9709930419922 C307.9989929199219,227.9709930419922 299.27899169921875,273.9530029296875 299.27899169921875,273.9530029296875 C297.73699951171875,282.0880126953125 290.62701416015625,287.97601318359375 282.34698486328125,287.97601318359375z"/><path stroke-linecap="round" stroke-linejoin="round" fill-opacity="0" stroke="rgb(26,46,53)" stroke-opacity="1" stroke-width="1.113" d=" M282.34698486328125,287.97601318359375 C282.34698486328125,287.97601318359375 257.79400634765625,287.97601318359375 257.79400634765625,287.97601318359375 C249.51400756835938,287.97601318359375 242.406005859375,282.0880126953125 240.86300659179688,273.9530029296875 C240.86300659179688,273.9530029296875 232.1439971923828,227.9709930419922 232.1439971923828,227.9709930419922 C232.1439971923828,227.9709930419922 307.9989929199219,227.9709930419922 307.9989929199219,227.9709930419922 C307.9989929199219,227.9709930419922 299.27899169921875,273.9530029296875 299.27899169921875,273.9530029296875 C297.73699951171875,282.0880126953125 290.62701416015625,287.97601318359375 282.34698486328125,287.97601318359375z"/></g></g><g transform="matrix(1,0,0,1,479.9999694824219,422)" opacity="1" style="display: block;"><g opacity="1" transform="matrix(1,0,0,1,0,0)"><path fill="rgb(26,46,53)" fill-opacity="1" d=" M163.53599548339844,331.65301513671875 C163.53599548339844,341.15899658203125 135.51499938964844,348.864013671875 100.9489974975586,348.864013671875 C66.38300323486328,348.864013671875 38.36199951171875,341.15899658203125 38.36199951171875,331.65301513671875 C38.36199951171875,322.1470031738281 66.38300323486328,314.4410095214844 100.9489974975586,314.4410095214844 C135.51499938964844,314.4410095214844 163.53599548339844,322.1470031738281 163.53599548339844,331.65301513671875z"/></g></g><g transform="matrix(1,0,0,1,480,422)" opacity="1" style="display: block;"><g opacity="1" transform="matrix(1,0,0,1,0,0)"><g opacity="1" transform="matrix(1,0,0,1,0,0)"><path fill="rgb(255,255,255)" fill-opacity="1" d=" M-222.4219970703125,370.7619934082031 C-287.53900146484375,370.7619934082031 -297.1520080566406,361.3479919433594 -298.10198974609375,353.75201416015625 C-298.51300048828125,350.4620056152344 -297.5169982910156,347.531005859375 -295.13800048828125,345.0360107421875 C-277.5889892578125,326.635986328125 -176.50399780273438,334.4169921875 -36.59400177001953,345.1910095214844 C-17.082000732421875,346.6940002441406 3.1040000915527344,348.24700927734375 23.799999237060547,349.7860107421875 C165.16600036621094,360.28900146484375 222.0749969482422,358.9219970703125 233.7779998779297,344.7250061035156 C236.177001953125,341.81201171875 236.67599487304688,338.17999267578125 235.34300231933594,333.29400634765625 C229.7519989013672,312.79400634765625 154.88999938964844,312.635986328125 126.52300262451172,314.2969970703125 C125.18000030517578,314.364013671875 124.01699829101562,313.34600830078125 123.93800354003906,311.99798583984375 C123.85900115966797,310.6510009765625 124.88600158691406,309.49200439453125 126.23600006103516,309.4129943847656 C137.08399963378906,308.7770080566406 232.42100524902344,303.989013671875 240.06399536132812,332.0090026855469 C241.82699584960938,338.47198486328125 241.00599670410156,343.6499938964844 237.55299377441406,347.8389892578125 C224.3470001220703,363.8599853515625 170.32200622558594,365.5769958496094 23.437000274658203,354.6650085449219 C2.7360000610351562,353.1260070800781 -17.45199966430664,351.572998046875 -36.970001220703125,350.07000732421875 C-170.322998046875,339.7980041503906 -275.65399169921875,331.6860046386719 -291.59698486328125,348.41400146484375 C-292.947998046875,349.83099365234375 -293.47198486328125,351.3340148925781 -293.2460021972656,353.1449890136719 C-292.6409912109375,357.9909973144531 -281,368.8599853515625 -186.14999389648438,365.072998046875 C-133.17300415039062,362.96099853515625 -79.94000244140625,357.19000244140625 -79.40799713134766,357.13299560546875 C-78.07599639892578,356.9849853515625 -76.85700225830078,357.9549865722656 -76.70999908447266,359.29998779296875 C-76.56300354003906,360.64300537109375 -77.53299713134766,361.85198974609375 -78.87699890136719,361.99798583984375 C-79.41000366210938,362.05499267578125 -132.7899932861328,367.8420104980469 -185.9340057373047,369.96099853515625 C-199.70599365234375,370.510009765625 -211.8040008544922,370.7619934082031 -222.4219970703125,370.7619934082031z"/><path stroke-linecap="butt" stroke-linejoin="miter" fill-opacity="0" stroke-miterlimit="10" stroke="rgb(26,46,53)" stroke-opacity="1" stroke-width="1.113" d=" M-222.4219970703125,370.7619934082031 C-287.53900146484375,370.7619934082031 -297.1520080566406,361.3479919433594 -298.10198974609375,353.75201416015625 C-298.51300048828125,350.4620056152344 -297.5169982910156,347.531005859375 -295.13800048828125,345.0360107421875 C-277.5889892578125,326.635986328125 -176.50399780273438,334.4169921875 -36.59400177001953,345.1910095214844 C-17.082000732421875,346.6940002441406 3.1040000915527344,348.24700927734375 23.799999237060547,349.7860107421875 C165.16600036621094,360.28900146484375 222.0749969482422,358.9219970703125 233.7779998779297,344.7250061035156 C236.177001953125,341.81201171875 236.67599487304688,338.17999267578125 235.34300231933594,333.29400634765625 C229.7519989013672,312.79400634765625 154.88999938964844,312.635986328125 126.52300262451172,314.2969970703125 C125.18000030517578,314.364013671875 124.01699829101562,313.34600830078125 123.93800354003906,311.99798583984375 C123.85900115966797,310.6510009765625 124.88600158691406,309.49200439453125 126.23600006103516,309.4129943847656 C137.08399963378906,308.7770080566406 232.42100524902344,303.989013671875 240.06399536132812,332.0090026855469 C241.82699584960938,338.47198486328125 241.00599670410156,343.6499938964844 237.55299377441406,347.8389892578125 C224.3470001220703,363.8599853515625 170.32200622558594,365.5769958496094 23.437000274658203,354.6650085449219 C2.7360000610351562,353.1260070800781 -17.45199966430664,351.572998046875 -36.970001220703125,350.07000732421875 C-170.322998046875,339.7980041503906 -275.65399169921875,331.6860046386719 -291.59698486328125,348.41400146484375 C-292.947998046875,349.83099365234375 -293.47198486328125,351.3340148925781 -293.2460021972656,353.1449890136719 C-292.6409912109375,357.9909973144531 -281,368.8599853515625 -186.14999389648438,365.072998046875 C-133.17300415039062,362.96099853515625 -79.94000244140625,357.19000244140625 -79.40799713134766,357.13299560546875 C-78.07599639892578,356.9849853515625 -76.85700225830078,357.9549865722656 -76.70999908447266,359.29998779296875 C-76.56300354003906,360.64300537109375 -77.53299713134766,361.85198974609375 -78.87699890136719,361.99798583984375 C-79.41000366210938,362.05499267578125 -132.7899932861328,367.8420104980469 -185.9340057373047,369.96099853515625 C-199.70599365234375,370.510009765625 -211.8040008544922,370.7619934082031 -222.4219970703125,370.7619934082031z"/></g></g><g opacity="1" transform="matrix(1,0,0,1,0,0)"><path fill="rgb(255,255,255)" fill-opacity="1" d=" M151.41400146484375,273.0409851074219 C151.41400146484375,232.32200622558594 118.40399932861328,199.31199645996094 77.68499755859375,199.31199645996094 C36.965999603271484,199.31199645996094 3.9570000171661377,232.32200622558594 3.9570000171661377,273.0409851074219 C3.9570000171661377,313.760009765625 36.965999603271484,346.7699890136719 77.68499755859375,346.7699890136719 C118.40399932861328,346.7699890136719 151.41400146484375,313.760009765625 151.41400146484375,273.0409851074219z"/><path stroke-linecap="round" stroke-linejoin="round" fill-opacity="0" stroke="rgb(26,46,53)" stroke-opacity="1" stroke-width="1.113" d=" M151.41400146484375,273.0409851074219 C151.41400146484375,232.32200622558594 118.40399932861328,199.31199645996094 77.68499755859375,199.31199645996094 C36.965999603271484,199.31199645996094 3.9570000171661377,232.32200622558594 3.9570000171661377,273.0409851074219 C3.9570000171661377,313.760009765625 36.965999603271484,346.7699890136719 77.68499755859375,346.7699890136719 C118.40399932861328,346.7699890136719 151.41400146484375,313.760009765625 151.41400146484375,273.0409851074219z"/></g><g opacity="1" transform="matrix(1,0,0,1,0,0)"><g opacity="1" transform="matrix(1,0,0,1,0,0)"><path stroke-linecap="round" stroke-linejoin="round" fill-opacity="0" stroke="rgb(26,46,53)" stroke-opacity="1" stroke-width="1.113" d=" M113.9749984741211,301.9440002441406 C92.31700134277344,280.7539978027344 67.3550033569336,274.135986328125 67.3550033569336,274.135986328125 C67.3550033569336,274.135986328125 92.31700134277344,280.7539978027344 113.9749984741211,301.9440002441406 C115.2760009765625,301.9630126953125 116.5510025024414,301.9960021972656 117.87899780273438,301.9989929199219 C128.10299682617188,291.70001220703125 135.19700622558594,281.74700927734375 140.093994140625,273.0379943847656 C105.55699920654297,236.50399780273438 71.875,240.23599243164062 71.875,240.23599243164062 C71.875,240.23599243164062 105.55699920654297,236.50399780273438 140.093994140625,273.0379943847656 C141.9980010986328,269.6510009765625 143.5780029296875,266.4590148925781 144.87899780273438,263.5060119628906 C130.5959930419922,243.3730010986328 105.85600280761719,229.71299743652344 92.48999786376953,227.60899353027344 C92.48999786376953,227.60899353027344 89.39700317382812,226.88099670410156 89.39700317382812,226.88099670410156 C80.45700073242188,225.4739990234375 74.88800048828125,226.67599487304688 74.88800048828125,226.67599487304688 C74.88800048828125,226.67599487304688 80.45700073242188,225.4739990234375 89.39700317382812,226.88099670410156 C89.39700317382812,226.88099670410156 98.19599914550781,202.2429962158203 98.19599914550781,202.2429962158203 C94.08899688720703,201.07899475097656 89.84500122070312,200.24200439453125 85.4800033569336,199.8040008544922 C79.79299926757812,209.00100708007812 65.09500122070312,238.4029998779297 65.09500122070312,296.7359924316406 C65.09500122070312,238.4029998779297 79.79299926757812,209.00100708007812 85.4800033569336,199.8040008544922 C83.0260009765625,199.55799865722656 80.53700256347656,199.42999267578125 78.01799774169922,199.42999267578125 C75.19499969482422,199.42999267578125 72.41400146484375,199.60400390625 69.6729965209961,199.91200256347656 C60.98400115966797,213.05299377441406 44.36800003051758,244.0919952392578 43.25,290.66900634765625 C60.566001892089844,296.8320007324219 83.63800048828125,301.5060119628906 113.9749984741211,301.9440002441406z M130.63499450683594,286.9419860839844 C101.25499725341797,258.3160095214844 68.86199951171875,256.8089904785156 68.86199951171875,256.8089904785156 C68.86199951171875,256.8089904785156 101.25499725341797,258.3160095214844 130.63499450683594,286.9419860839844z"/></g><g opacity="1" transform="matrix(1,0,0,1,0,0)"><path stroke-linecap="round" stroke-linejoin="round" fill-opacity="0" stroke="rgb(26,46,53)" stroke-opacity="1" stroke-width="1.113" d=" M43.25,290.66900634765625 C44.36800003051758,244.0919952392578 60.98400115966797,213.05299377441406 69.6729965209961,199.91200256347656 C62.73899841308594,200.69200134277344 56.09700012207031,202.42799377441406 49.880001068115234,204.99200439453125 C40.479000091552734,218.69500732421875 25.66200065612793,245.88900756835938 24.450000762939453,282.4070129394531 C29.785999298095703,285.28399658203125 36.03099822998047,288.1000061035156 43.25,290.66900634765625z"/></g><g opacity="1" transform="matrix(1,0,0,1,0,0)"><path stroke-linecap="round" stroke-linejoin="round" fill-opacity="0" stroke="rgb(26,46,53)" stroke-opacity="1" stroke-width="1.113" d=" M49.880001068115234,204.99200439453125 C24.520999908447266,215.44900512695312 6.271999835968018,239.60699462890625 4.334000110626221,268.2489929199219 C8.833000183105469,272.4549865722656 15.354999542236328,277.5039978027344 24.450000762939453,282.4070129394531 C25.66200065612793,245.88900756835938 40.479000091552734,218.69500732421875 49.880001068115234,204.99200439453125z"/></g><g opacity="1" transform="matrix(1,0,0,1,0,0)"><path stroke-linecap="round" stroke-linejoin="round" fill-opacity="0" stroke="rgb(26,46,53)" stroke-opacity="1" stroke-width="1.113" d=" M144.87899780273438,263.5060119628906 C146.72300720214844,259.32000732421875 148.0240020751953,255.6320037841797 148.927001953125,252.58399963378906 C145.82200622558594,241.9409942626953 140.3939971923828,232.29200744628906 133.21600341796875,224.2259979248047 C133.21600341796875,224.2259979248047 127.62100219726562,243.24899291992188 127.62100219726562,243.24899291992188 C127.62100219726562,243.24899291992188 133.21600341796875,224.2259979248047 133.21600341796875,224.2259979248047 C128.68299865722656,219.1320037841797 123.45500183105469,214.677001953125 117.68099975585938,210.99400329589844 C117.68099975585938,210.99400329589844 111.38999938964844,234.49000549316406 111.38999938964844,234.49000549316406 C111.38999938964844,234.49000549316406 117.68099975585938,210.99400329589844 117.68099975585938,210.99400329589844 C111.71399688720703,207.18800354003906 105.16600036621094,204.218994140625 98.19599914550781,202.2429962158203 C98.19599914550781,202.2429962158203 89.39700317382812,226.88099670410156 89.39700317382812,226.88099670410156 C102.76300048828125,228.98500061035156 123.677001953125,236.93099975585938 144.87899780273438,263.5060119628906z"/></g><g opacity="1" transform="matrix(1,0,0,1,0,0)"><path stroke-linecap="round" stroke-linejoin="round" fill-opacity="0" stroke="rgb(26,46,53)" stroke-opacity="1" stroke-width="1.113" d=" M151.81300354003906,276.5190124511719 C151.85899353027344,275.4530029296875 151.8939971923828,274.3840026855469 151.8939971923828,273.3059997558594 C151.8939971923828,266.1090087890625 150.8459930419922,259.1610107421875 148.927001953125,252.58399963378906 C148.0240020751953,255.6320037841797 146.72300720214844,259.32000732421875 144.87899780273438,263.5060119628906 C144.90199279785156,263.5350036621094 144.9250030517578,263.55999755859375 144.947998046875,263.5889892578125 C144.9250030517578,263.55999755859375 144.90199279785156,263.5350036621094 144.87899780273438,263.5060119628906 C143.5780029296875,266.4590148925781 143.6529998779297,266.4179992675781 141.74899291992188,269.80499267578125 C141.86000061035156,269.9230041503906 139.98300170898438,272.91900634765625 140.093994140625,273.0379943847656 C139.98300170898438,272.91900634765625 138.1280059814453,276.7439880371094 138.01699829101562,276.6260070800781 C133.1199951171875,285.3349914550781 118.34200286865234,302.0090026855469 118.58100128173828,302.0090026855469 C118.34200286865234,302.0090026855469 110.59500122070312,309.031005859375 106.35800170898438,312.57000732421875 C106.41500091552734,312.5639953613281 106.47100067138672,312.5610046386719 106.52799987792969,312.55499267578125 C106.47100067138672,312.5610046386719 106.41500091552734,312.5639953613281 106.35800170898438,312.57000732421875 C99.3550033569336,318.4200134277344 91.24600219726562,324.2720031738281 81.88500213623047,329.9700012207031 C82.06099700927734,329.93701171875 82.24700164794922,329.9169921875 82.4209976196289,329.8819885253906 C82.24700164794922,329.9169921875 82.06099700927734,329.93701171875 81.88500213623047,329.9700012207031 C74.09600067138672,334.71099853515625 65.39399719238281,339.3330078125 55.75699996948242,343.760986328125 C62.78300094604492,345.97900390625 70.25900268554688,347.1820068359375 78.01799774169922,347.1820068359375 C79.26300048828125,347.1820068359375 80.5009994506836,347.14898681640625 81.73100280761719,347.0880126953125 C96.64900207519531,338.97900390625 120.66999816894531,320.14300537109375 151.81300354003906,276.5190124511719z"/></g><g opacity="1" transform="matrix(1,0,0,1,0,0)"><path stroke-linecap="round" stroke-linejoin="round" fill-opacity="0" stroke="rgb(26,46,53)" stroke-opacity="1" stroke-width="1.113" d=" M151.81300354003906,276.5190124511719 C120.66999816894531,320.14300537109375 96.64900207519531,338.97900390625 81.73100280761719,347.0880126953125 C119.74199676513672,345.20599365234375 150.1820068359375,314.5950012207031 151.81300354003906,276.5190124511719z"/></g><g opacity="1" transform="matrix(1,0,0,1,0,0)"><path stroke-linecap="round" stroke-linejoin="round" fill-opacity="0" stroke="rgb(26,46,53)" stroke-opacity="1" stroke-width="1.113" d=" M20.27400016784668,319.3580017089844 C29.31800079345703,330.6839904785156 41.61199951171875,339.2959899902344 55.75699996948242,343.760986328125 C65.39399719238281,339.3330078125 74.09600067138672,334.71099853515625 81.88500213623047,329.9700012207031 C64.30000305175781,333.2179870605469 36.79999923706055,325.1579895019531 20.27400016784668,319.3580017089844z"/></g><g opacity="1" transform="matrix(1,0,0,1,0,0)"><path stroke-linecap="round" stroke-linejoin="round" fill-opacity="0" stroke="rgb(26,46,53)" stroke-opacity="1" stroke-width="1.113" d=" M81.88500213623047,329.9700012207031 C91.24600219726562,324.2720031738281 99.3550033569336,318.4200134277344 106.35800170898438,312.57000732421875 C53.26499938964844,318.0010070800781 20.506000518798828,301.5639953613281 6.5929999351501465,292.20599365234375 C9.246000289916992,302.2590026855469 13.970999717712402,311.4649963378906 20.27400016784668,319.3580017089844 C36.79999923706055,325.1579895019531 64.30000305175781,333.2179870605469 81.88500213623047,329.9700012207031z"/></g><g opacity="1" transform="matrix(1,0,0,1,0,0)"><path stroke-linecap="round" stroke-linejoin="round" fill-opacity="0" stroke="rgb(26,46,53)" stroke-opacity="1" stroke-width="1.113" d=" M106.35800170898438,312.57000732421875 C110.59500122070312,309.031005859375 114.40499877929688,305.49798583984375 117.87899780273438,301.9989929199219 C116.5510025024414,301.9960021972656 115.2760009765625,301.9630126953125 113.9749984741211,301.9440002441406 C114.25499725341797,302.2179870605469 114.53600311279297,302.4840087890625 114.81500244140625,302.7619934082031 C114.53600311279297,302.4840087890625 114.25499725341797,302.2179870605469 113.9749984741211,301.9440002441406 C83.63800048828125,301.5060119628906 60.566001892089844,296.8320007324219 43.25,290.66900634765625 C43.25,290.6830139160156 43.24800109863281,290.69500732421875 43.24800109863281,290.7090148925781 C43.24800109863281,290.69500732421875 43.25,290.6830139160156 43.25,290.66900634765625 C17.94300079345703,281.90301513671875 8.833000183105469,272.4549865722656 4.334000110626221,268.2489929199219 C4.2210001945495605,269.9219970703125 4.14300012588501,271.60400390625 4.14300012588501,273.3059997558594 C4.14300012588501,279.8399963378906 5,286.1719970703125 6.5929999351501465,292.20599365234375 C20.506000518798828,301.5639953613281 53.26499938964844,318.0010070800781 106.35800170898438,312.57000732421875z"/></g></g></g><g transform="matrix(1,0,0,1,481.916748046875,414.5047912597656)" opacity="1" style="display: block;"><g opacity="1" transform="matrix(1,0,0,1,0,0)"><path fill="rgb(255,255,255)" fill-opacity="1" d=" M-43.507232666015625,199.93785095214844 C-84.40906524658203,220.38385009765625 -122.25018310546875,209.76406860351562 -153.00732421875,191.05116271972656 C-153.00732421875,191.05116271972656 -154.0784912109375,190.38766479492188 -154.0784912109375,190.38766479492188 C-160.19566345214844,186.55850219726562 -162.09217834472656,178.4625244140625 -158.29519653320312,172.31723022460938 C-154.49850463867188,166.17147827148438 -146.4792938232422,164.2858428955078 -140.3638458251953,168.1137237548828 C-140.3638458251953,168.1137237548828 -139.56948852539062,168.60769653320312 -139.56948852539062,168.60769653320312 C-116.16085052490234,182.84898376464844 -81.0171890258789,190.45989990234375 -52.86787414550781,174.3416290283203 C-41.6401252746582,167.9124755859375 -26.996999740600586,158.2729949951172 -18.496000289916992,148.53399658203125 C-0.6809999942779541,128.12399291992188 7.2829999923706055,83.69200134277344 5.505000114440918,61.29499816894531 C5.0329999923706055,55.36800003051758 9.458000183105469,50.180999755859375 15.383999824523926,49.71099853515625 C21.35300064086914,49.24100112915039 26.496999740600586,53.66400146484375 26.966999053955078,59.59000015258789 C28.94700050354004,84.51599884033203 26.31399917602539,138.12600708007812 1.7799999713897705,166.23199462890625 C-11.54800033569336,181.5 -22.003795623779297,187.78199768066406 -39.59122085571289,197.83839416503906 C-40.893890380859375,198.582763671875 -42.200504302978516,199.28457641601562 -43.507232666015625,199.93785095214844z"/><path stroke-linecap="round" stroke-linejoin="round" fill-opacity="0" stroke="rgb(26,46,53)" stroke-opacity="1" stroke-width="1.113" d=" M-43.507232666015625,199.93785095214844 C-84.40906524658203,220.38385009765625 -122.25018310546875,209.76406860351562 -153.00732421875,191.05116271972656 C-153.00732421875,191.05116271972656 -154.0784912109375,190.38766479492188 -154.0784912109375,190.38766479492188 C-160.19566345214844,186.55850219726562 -162.09217834472656,178.4625244140625 -158.29519653320312,172.31723022460938 C-154.49850463867188,166.17147827148438 -146.4792938232422,164.2858428955078 -140.3638458251953,168.1137237548828 C-140.3638458251953,168.1137237548828 -139.56948852539062,168.60769653320312 -139.56948852539062,168.60769653320312 C-116.16085052490234,182.84898376464844 -81.0171890258789,190.45989990234375 -52.86787414550781,174.3416290283203 C-41.6401252746582,167.9124755859375 -26.996999740600586,158.2729949951172 -18.496000289916992,148.53399658203125 C-0.6809999942779541,128.12399291992188 7.2829999923706055,83.69200134277344 5.505000114440918,61.29499816894531 C5.0329999923706055,55.36800003051758 9.458000183105469,50.180999755859375 15.383999824523926,49.71099853515625 C21.35300064086914,49.24100112915039 26.496999740600586,53.66400146484375 26.966999053955078,59.59000015258789 C28.94700050354004,84.51599884033203 26.31399917602539,138.12600708007812 1.7799999713897705,166.23199462890625 C-11.54800033569336,181.5 -22.003795623779297,187.78199768066406 -39.59122085571289,197.83839416503906 C-40.893890380859375,198.582763671875 -42.200504302978516,199.28457641601562 -43.507232666015625,199.93785095214844z"/></g><g opacity="1" transform="matrix(1,0,0,1,0,0)"><g opacity="1" transform="matrix(1,0,0,1,0,0)"><path fill="rgb(170,255,0)" fill-opacity="1" d=" M-78.99150848388672,189.2041778564453 C-80.94393157958984,184.4806365966797 -86.22320556640625,198.27296447753906 -90.28189849853516,209.958251953125 C-85.49285125732422,210.4151153564453 -80.72697448730469,209.8984375 -75.91262817382812,209.46067810058594 C-76.2763442993164,202.64979553222656 -77.10398864746094,193.7698974609375 -78.99150848388672,189.2041778564453z"/><path stroke-linecap="round" stroke-linejoin="round" fill-opacity="0" stroke="rgb(26,46,53)" stroke-opacity="1" stroke-width="1.113" d=" M-78.99150848388672,189.2041778564453 C-80.94393157958984,184.4806365966797 -86.22320556640625,198.27296447753906 -90.28189849853516,209.958251953125 C-85.49285125732422,210.4151153564453 -80.72697448730469,209.8984375 -75.91262817382812,209.46067810058594 C-76.2763442993164,202.64979553222656 -77.10398864746094,193.7698974609375 -78.99150848388672,189.2041778564453z"/></g><g opacity="1" transform="matrix(1,0,0,1,0,0)"><path fill="rgb(170,255,0)" fill-opacity="1" d=" M-43.507232666015625,199.93785095214844 C-42.200504302978516,199.28457641601562 -40.892887115478516,198.58377075195312 -39.59122085571289,197.83839416503906 C-35.69249725341797,195.605712890625 -32.110069274902344,193.1129608154297 -28.812437057495117,190.3918914794922 C-37.17158508300781,186.251953125 -48.48710250854492,180.93479919433594 -50.83613586425781,181.26519775390625 C-53.50822067260742,181.6401824951172 -52.33325958251953,195.21022033691406 -51.38720703125,203.3225860595703 C-48.756832122802734,202.36940002441406 -46.12825012207031,201.2480926513672 -43.507232666015625,199.93785095214844z"/><path stroke-linecap="round" stroke-linejoin="round" fill-opacity="0" stroke="rgb(26,46,53)" stroke-opacity="1" stroke-width="1.113" d=" M-43.507232666015625,199.93785095214844 C-42.200504302978516,199.28457641601562 -40.892887115478516,198.58377075195312 -39.59122085571289,197.83839416503906 C-35.69249725341797,195.605712890625 -32.110069274902344,193.1129608154297 -28.812437057495117,190.3918914794922 C-37.17158508300781,186.251953125 -48.48710250854492,180.93479919433594 -50.83613586425781,181.26519775390625 C-53.50822067260742,181.6401824951172 -52.33325958251953,195.21022033691406 -51.38720703125,203.3225860595703 C-48.756832122802734,202.36940002441406 -46.12825012207031,201.2480926513672 -43.507232666015625,199.93785095214844z"/></g><g opacity="1" transform="matrix(1,0,0,1,0,0)"><path fill="rgb(170,255,0)" fill-opacity="1" d=" M-139.56948852539062,168.60769653320312 C-139.56948852539062,168.60769653320312 -140.3638458251953,168.1137237548828 -140.3638458251953,168.1137237548828 C-146.4792938232422,164.2858428955078 -154.50694274902344,166.1669158935547 -158.29519653320312,172.31723022460938 C-162.08372497558594,178.4670867919922 -160.19566345214844,186.55850219726562 -154.0784912109375,190.38766479492188 C-154.0784912109375,190.38766479492188 -153.00732421875,191.05116271972656 -153.00732421875,191.05116271972656 C-142.79620361328125,197.26368713378906 -130.8496551513672,202.53099060058594 -118.27534484863281,205.68783569335938 C-118.27534484863281,205.68783569335938 -108.9074935913086,180.96983337402344 -108.9074935913086,180.96983337402344 C-119.88855743408203,178.67442321777344 -130.5814971923828,174.0758056640625 -139.56948852539062,168.60769653320312z"/><path stroke-linecap="round" stroke-linejoin="round" fill-opacity="0" stroke="rgb(26,46,53)" stroke-opacity="1" stroke-width="1.113" d=" M-139.56948852539062,168.60769653320312 C-139.56948852539062,168.60769653320312 -140.3638458251953,168.1137237548828 -140.3638458251953,168.1137237548828 C-146.4792938232422,164.2858428955078 -154.50694274902344,166.1669158935547 -158.29519653320312,172.31723022460938 C-162.08372497558594,178.4670867919922 -160.19566345214844,186.55850219726562 -154.0784912109375,190.38766479492188 C-154.0784912109375,190.38766479492188 -153.00732421875,191.05116271972656 -153.00732421875,191.05116271972656 C-142.79620361328125,197.26368713378906 -130.8496551513672,202.53099060058594 -118.27534484863281,205.68783569335938 C-118.27534484863281,205.68783569335938 -108.9074935913086,180.96983337402344 -108.9074935913086,180.96983337402344 C-119.88855743408203,178.67442321777344 -130.5814971923828,174.0758056640625 -139.56948852539062,168.60769653320312z"/></g><g opacity="1" transform="matrix(1,0,0,1,0,0)"><path fill="rgb(170,255,0)" fill-opacity="1" d=" M1.7799999713897705,166.23199462890625 C3.6549999713897705,164.0850067138672 5.386000156402588,161.7729949951172 7.01200008392334,159.3520050048828 C-0.7620000243186951,156.6929931640625 -12.423999786376953,153.03900146484375 -16.75200080871582,153.4320068359375 C-21.884000778198242,153.8979949951172 -14.920000076293945,170.36900329589844 -11.324999809265137,178.16299438476562 C-6.627999782562256,174.82200622558594 -2.252000093460083,170.8509979248047 1.7799999713897705,166.23199462890625z"/><path stroke-linecap="round" stroke-linejoin="round" fill-opacity="0" stroke="rgb(26,46,53)" stroke-opacity="1" stroke-width="1.113" d=" M1.7799999713897705,166.23199462890625 C3.6549999713897705,164.0850067138672 5.386000156402588,161.7729949951172 7.01200008392334,159.3520050048828 C-0.7620000243186951,156.6929931640625 -12.423999786376953,153.03900146484375 -16.75200080871582,153.4320068359375 C-21.884000778198242,153.8979949951172 -14.920000076293945,170.36900329589844 -11.324999809265137,178.16299438476562 C-6.627999782562256,174.82200622558594 -2.252000093460083,170.8509979248047 1.7799999713897705,166.23199462890625z"/></g><g opacity="1" transform="matrix(1,0,0,1,0,0)"><path fill="rgb(170,255,0)" fill-opacity="1" d=" M2.2100000381469727,122.23699951171875 C1.3940000534057617,123.86900329589844 11.463000297546387,131.21499633789062 18.260000228881836,135.927001953125 C20.422000885009766,129.5659942626953 22.128999710083008,122.9530029296875 23.451000213623047,116.31999969482422 C15.204999923706055,117.95800018310547 3.015000104904175,120.62699890136719 2.2100000381469727,122.23699951171875z"/><path stroke-linecap="round" stroke-linejoin="round" fill-opacity="0" stroke="rgb(26,46,53)" stroke-opacity="1" stroke-width="1.113" d=" M2.2100000381469727,122.23699951171875 C1.3940000534057617,123.86900329589844 11.463000297546387,131.21499633789062 18.260000228881836,135.927001953125 C20.422000885009766,129.5659942626953 22.128999710083008,122.9530029296875 23.451000213623047,116.31999969482422 C15.204999923706055,117.95800018310547 3.015000104904175,120.62699890136719 2.2100000381469727,122.23699951171875z"/></g><g opacity="1" transform="matrix(1,0,0,1,0,0)"><path fill="rgb(170,255,0)" fill-opacity="1" d=" M26.785999298095703,91.7750015258789 C27.243999481201172,85.90699768066406 27.45599937438965,80.3010025024414 27.483999252319336,75.14700317382812 C20.40399932861328,79.05500030517578 11.996999740600586,84.44100189208984 11.996999740600586,87.98300170898438 C11.996999740600586,91.40899658203125 19.86400032043457,91.95600128173828 26.785999298095703,91.7750015258789z"/><path stroke-linecap="round" stroke-linejoin="round" fill-opacity="0" stroke="rgb(26,46,53)" stroke-opacity="1" stroke-width="1.113" d=" M26.785999298095703,91.7750015258789 C27.243999481201172,85.90699768066406 27.45599937438965,80.3010025024414 27.483999252319336,75.14700317382812 C20.40399932861328,79.05500030517578 11.996999740600586,84.44100189208984 11.996999740600586,87.98300170898438 C11.996999740600586,91.40899658203125 19.86400032043457,91.95600128173828 26.785999298095703,91.7750015258789z"/></g></g></g><g transform="matrix(1,0,0,1,480,422)" opacity="1" style="display: block;"><g opacity="1" transform="matrix(1,0,0,1,0,0)"><path fill="rgb(255,255,255)" fill-opacity="1" d=" M-84.08399963378906,-67.54000091552734 C-84.08399963378906,-67.54000091552734 -104.16786193847656,-9.935842514038086 -93.55374145507812,35.1445426940918 C-82.96798706054688,79.77265167236328 -43.8747444152832,95.01362609863281 -43.8747444152832,95.01362609863281 C-43.8747444152832,95.01362609863281 -72.9543228149414,105.3253402709961 -66.29331970214844,121.21034240722656 C-59.632320404052734,137.0953369140625 -34.52431869506836,126.8463363647461 -26.325319290161133,121.72234344482422 C-18.1273193359375,116.59834289550781 -7.87831974029541,101.2263412475586 -6.341319561004639,90.97834014892578 C-4.804319858551025,80.73033905029297 -5.317319869995117,75.09333801269531 -5.317319869995117,75.09333801269531 C-5.317319869995117,75.09333801269531 28.17974281311035,71.68431091308594 50.831504821777344,53.45262145996094 C50.831504821777344,53.45262145996094 70.61517333984375,69.68543243408203 84.96121215820312,66.73179626464844 C99.30625915527344,63.77815628051758 119.97015380859375,38.36935043334961 118.10826110839844,15.336617469787598 C116.24637603759766,-7.695133686065674 102.94800567626953,-7.802586555480957 94.73648071289062,-4.2877631187438965 C86.52397155761719,-0.7729390859603882 83.42698669433594,2.782860279083252 83.42698669433594,2.782860279083252 C83.42698669433594,2.782860279083252 95.14778137207031,-12.145389556884766 83.36277770996094,-32.129390716552734 C71.5777816772461,-52.1133918762207 50.678001403808594,-53.70500183105469 50.678001403808594,-53.70500183105469 C50.678001403808594,-53.70500183105469 44.529998779296875,-86.4990005493164 26.08300018310547,-98.7969970703125 C7.6360182762146,-111.09500122070312 -57.95100021362305,-123.90499877929688 -84.08399963378906,-67.54000091552734z"/><path stroke-linecap="round" stroke-linejoin="round" fill-opacity="0" stroke="rgb(26,46,53)" stroke-opacity="1" stroke-width="1.113" d=" M-84.08399963378906,-67.54000091552734 C-84.08399963378906,-67.54000091552734 -104.16786193847656,-9.935842514038086 -93.55374145507812,35.1445426940918 C-82.96798706054688,79.77265167236328 -43.8747444152832,95.01362609863281 -43.8747444152832,95.01362609863281 C-43.8747444152832,95.01362609863281 -72.9543228149414,105.3253402709961 -66.29331970214844,121.21034240722656 C-59.632320404052734,137.0953369140625 -34.52431869506836,126.8463363647461 -26.325319290161133,121.72234344482422 C-18.1273193359375,116.59834289550781 -7.87831974029541,101.2263412475586 -6.341319561004639,90.97834014892578 C-4.804319858551025,80.73033905029297 -5.317319869995117,75.09333801269531 -5.317319869995117,75.09333801269531 C-5.317319869995117,75.09333801269531 28.17974281311035,71.68431091308594 50.831504821777344,53.45262145996094 C50.831504821777344,53.45262145996094 70.61517333984375,69.68543243408203 84.96121215820312,66.73179626464844 C99.30625915527344,63.77815628051758 119.97015380859375,38.36935043334961 118.10826110839844,15.336617469787598 C116.24637603759766,-7.695133686065674 102.94800567626953,-7.802586555480957 94.73648071289062,-4.2877631187438965 C86.52397155761719,-0.7729390859603882 83.42698669433594,2.782860279083252 83.42698669433594,2.782860279083252 C83.42698669433594,2.782860279083252 95.14778137207031,-12.145389556884766 83.36277770996094,-32.129390716552734 C71.5777816772461,-52.1133918762207 50.678001403808594,-53.70500183105469 50.678001403808594,-53.70500183105469 C50.678001403808594,-53.70500183105469 44.529998779296875,-86.4990005493164 26.08300018310547,-98.7969970703125 C7.6360182762146,-111.09500122070312 -57.95100021362305,-123.90499877929688 -84.08399963378906,-67.54000091552734z"/></g><g opacity="1" transform="matrix(1,0,0,1,0,0)"><g opacity="1" transform="matrix(1,0,0,1,0,0)"><g opacity="1" transform="matrix(1,0,0,1,0,0)"><path fill="rgb(255,255,255)" fill-opacity="1" d=" M103.07296752929688,12.358951568603516 C101.779296875,16.095895767211914 98.34691619873047,18.29054069519043 95.39738464355469,17.269697189331055 C92.4478530883789,16.248851776123047 91.11073303222656,12.413747787475586 92.40440368652344,8.676804542541504 C93.69807434082031,4.939860820770264 97.1294937133789,2.715634822845459 100.07902526855469,3.736478805541992 C103.02855682373047,4.757322788238525 104.36663818359375,8.622008323669434 103.07296752929688,12.358951568603516z"/><path stroke-linecap="round" stroke-linejoin="round" fill-opacity="0" stroke="rgb(26,46,53)" stroke-opacity="1" stroke-width="1.113" d=" M103.07296752929688,12.358951568603516 C101.779296875,16.095895767211914 98.34691619873047,18.29054069519043 95.39738464355469,17.269697189331055 C92.4478530883789,16.248851776123047 91.11073303222656,12.413747787475586 92.40440368652344,8.676804542541504 C93.69807434082031,4.939860820770264 97.1294937133789,2.715634822845459 100.07902526855469,3.736478805541992 C103.02855682373047,4.757322788238525 104.36663818359375,8.622008323669434 103.07296752929688,12.358951568603516z"/></g><g opacity="1" transform="matrix(1,0,0,1,0,0)"><path fill="rgb(255,255,255)" fill-opacity="1" d=" M113.5909652709961,19.086711883544922 C112.29729461669922,22.82365608215332 108.85906219482422,25.025108337402344 105.90953826904297,24.00426483154297 C102.96000671386719,22.983421325683594 101.6310043334961,19.136938095092773 102.92467498779297,15.399995803833008 C104.21834564208984,11.66305160522461 107.64619445800781,9.450221061706543 110.5957260131836,10.471065521240234 C113.54525756835938,11.49190902709961 114.88462829589844,15.34976863861084 113.5909652709961,19.086711883544922z"/><path stroke-linecap="round" stroke-linejoin="round" fill-opacity="0" stroke="rgb(26,46,53)" stroke-opacity="1" stroke-width="1.113" d=" M113.5909652709961,19.086711883544922 C112.29729461669922,22.82365608215332 108.85906219482422,25.025108337402344 105.90953826904297,24.00426483154297 C102.96000671386719,22.983421325683594 101.6310043334961,19.136938095092773 102.92467498779297,15.399995803833008 C104.21834564208984,11.66305160522461 107.64619445800781,9.450221061706543 110.5957260131836,10.471065521240234 C113.54525756835938,11.49190902709961 114.88462829589844,15.34976863861084 113.5909652709961,19.086711883544922z"/></g><g opacity="1" transform="matrix(1,0,0,1,0,0)"><path fill="rgb(255,255,255)" fill-opacity="1" d=" M115.76826477050781,29.070310592651367 C114.82818603515625,31.783933639526367 112.3298110961914,33.38301467895508 110.18759155273438,32.64115905761719 C108.04536437988281,31.89930534362793 107.07059478759766,29.098447799682617 108.01068878173828,26.383861541748047 C108.9507827758789,23.670257568359375 111.4491195678711,22.071157455444336 113.59134674072266,22.813013076782227 C115.73357391357422,23.554868698120117 116.70834350585938,26.3557071685791 115.76826477050781,29.070310592651367z"/><path stroke-linecap="round" stroke-linejoin="round" fill-opacity="0" stroke="rgb(26,46,53)" stroke-opacity="1" stroke-width="1.113" d=" M115.76826477050781,29.070310592651367 C114.82818603515625,31.783933639526367 112.3298110961914,33.38301467895508 110.18759155273438,32.64115905761719 C108.04536437988281,31.89930534362793 107.07059478759766,29.098447799682617 108.01068878173828,26.383861541748047 C108.9507827758789,23.670257568359375 111.4491195678711,22.071157455444336 113.59134674072266,22.813013076782227 C115.73357391357422,23.554868698120117 116.70834350585938,26.3557071685791 115.76826477050781,29.070310592651367z"/></g></g><g opacity="1" transform="matrix(1,0,0,1,0,0)"><path fill="rgb(255,255,255)" fill-opacity="1" d=" M102.14495086669922,42.633052825927734 C98.39636993408203,49.27509689331055 91.00119018554688,52.22428512573242 85.58936309814453,49.16933059692383 C80.17752838134766,46.114376068115234 78.84722900390625,38.262718200683594 82.59580993652344,31.620677947998047 C86.34439086914062,24.9786376953125 93.73505401611328,22.04309844970703 99.14686584472656,25.098052978515625 C104.55867767333984,28.15300750732422 105.8935317993164,35.99101257324219 102.14495086669922,42.633052825927734z"/><path stroke-linecap="round" stroke-linejoin="round" fill-opacity="0" stroke="rgb(26,46,53)" stroke-opacity="1" stroke-width="1.113" d=" M102.14495086669922,42.633052825927734 C98.39636993408203,49.27509689331055 91.00119018554688,52.22428512573242 85.58936309814453,49.16933059692383 C80.17752838134766,46.114376068115234 78.84722900390625,38.262718200683594 82.59580993652344,31.620677947998047 C86.34439086914062,24.9786376953125 93.73505401611328,22.04309844970703 99.14686584472656,25.098052978515625 C104.55867767333984,28.15300750732422 105.8935317993164,35.99101257324219 102.14495086669922,42.633052825927734z"/></g></g><g opacity="1" transform="matrix(1,0,0,1,0,0)"><g opacity="1" transform="matrix(1,0,0,1,0,0)"><path stroke-linecap="round" stroke-linejoin="round" fill-opacity="0" stroke="rgb(26,46,53)" stroke-opacity="1" stroke-width="1.113" d=" M-43.8747444152832,95.01362609863281 C-43.8747444152832,95.01362609863281 -34.52431869506836,100.20133972167969 -21.714319229125977,96.61434173583984"/></g><g opacity="1" transform="matrix(1,0,0,1,0,0)"><path stroke-linecap="round" stroke-linejoin="round" fill-opacity="0" stroke="rgb(26,46,53)" stroke-opacity="1" stroke-width="1.113" d=" M-66.29331970214844,121.21034240722656 C-66.29331970214844,121.21034240722656 -64.24331665039062,112.49934387207031 -51.433319091796875,106.350341796875"/></g><g opacity="1" transform="matrix(1,0,0,1,0,0)"><path stroke-linecap="round" stroke-linejoin="round" fill-opacity="0" stroke="rgb(26,46,53)" stroke-opacity="1" stroke-width="1.113" d=" M-53.48331832885742,128.89634704589844 C-53.48331832885742,128.89634704589844 -48.35932159423828,116.59834289550781 -39.648319244384766,110.96234130859375"/></g></g></g><g transform="matrix(1,0,0,1,480,422)" opacity="1" style="display: block;"><g opacity="1" transform="matrix(1,0,0,1,0,0)"><path fill="rgb(26,46,53)" fill-opacity="1" d=" M-254.89199829101562,-12.531999588012695 C-259.3110046386719,-16.06599998474121 -261.5199890136719,-20.926000595092773 -261.5199890136719,-27.11199951171875 C-261.5199890136719,-27.11199951171875 -261.5199890136719,-75.93900299072266 -261.5199890136719,-75.93900299072266 C-261.5199890136719,-75.93900299072266 -387.45098876953125,-75.93900299072266 -387.45098876953125,-75.93900299072266 C-394.22698974609375,-75.93900299072266 -399.7130126953125,-78.22100067138672 -403.9100036621094,-82.78800201416016 C-408.1080017089844,-87.35199737548828 -410.2070007324219,-92.72899627685547 -410.2070007324219,-98.91600036621094 C-410.2070007324219,-103.7760009765625 -408.8089904785156,-108.33999633789062 -406.0090026855469,-112.61299896240234 C-406.0090026855469,-112.61299896240234 -285.3810119628906,-302.1730041503906 -285.3810119628906,-302.1730041503906 C-276.39801025390625,-316.1650085449219 -264.3909912109375,-323.1619873046875 -249.3679962158203,-323.1619873046875 C-240.531005859375,-323.1619873046875 -233.16799926757812,-320.5830078125 -227.2760009765625,-315.4289855957031 C-221.38600158691406,-310.2720031738281 -218.43800354003906,-302.614990234375 -218.43800354003906,-292.4519958496094 C-218.43800354003906,-292.4519958496094 -218.43800354003906,-108.19499969482422 -218.43800354003906,-108.19499969482422 C-218.43800354003906,-108.19499969482422 -186.4029998779297,-108.19499969482422 -186.4029998779297,-108.19499969482422 C-181.2480010986328,-108.19499969482422 -177.27200317382812,-106.61000061035156 -174.4720001220703,-103.44499969482422 C-171.67599487304688,-100.2760009765625 -170.27499389648438,-96.48500061035156 -170.27499389648438,-92.06700134277344 C-170.27499389648438,-87.64800262451172 -171.67599487304688,-83.85399627685547 -174.4720001220703,-80.68900299072266 C-177.27200317382812,-77.51899719238281 -181.2480010986328,-75.93900299072266 -186.4029998779297,-75.93900299072266 C-186.4029998779297,-75.93900299072266 -218.6580047607422,-75.93900299072266 -218.6580047607422,-75.93900299072266 C-218.6580047607422,-75.93900299072266 -218.6580047607422,-27.11199951171875 -218.6580047607422,-27.11199951171875 C-218.6580047607422,-20.926000595092773 -220.79600524902344,-16.06599998474121 -225.0659942626953,-12.531999588012695 C-229.33999633789062,-8.996000289916992 -234.2729949951172,-7.230000019073486 -239.86900329589844,-7.230000019073486 C-245.46800231933594,-7.230000019073486 -250.4739990234375,-8.996000289916992 -254.89199829101562,-12.531999588012695z M-261.5199890136719,-108.19499969482422 C-261.5199890136719,-108.19499969482422 -261.5199890136719,-277.8710021972656 -261.5199890136719,-277.8710021972656 C-261.5199890136719,-277.8710021972656 -367.125,-108.19499969482422 -367.125,-108.19499969482422 C-367.125,-108.19499969482422 -261.5199890136719,-108.19499969482422 -261.5199890136719,-108.19499969482422z"/></g><g opacity="1" transform="matrix(1,0,0,1,0,0)"><path fill="rgb(26,46,53)" fill-opacity="1" d=" M-80.13500213623047,-11.538000106811523 C-93.24500274658203,-17.50200080871582 -103.88500213623047,-25.45599937438965 -112.05899810791016,-35.39799880981445 C-120.23400115966797,-45.34000015258789 -126.93800354003906,-57.452999114990234 -132.16400146484375,-71.74099731445312 C-137.3939971923828,-86.0260009765625 -141.03900146484375,-100.68299865722656 -143.10000610351562,-115.70600128173828 C-145.16400146484375,-130.72999572753906 -146.1929931640625,-147.1510009765625 -146.1929931640625,-164.9739990234375 C-146.1929931640625,-273.52398681640625 -109.15399932861328,-327.8009948730469 -35.064998626708984,-327.8009948730469 C38.87200164794922,-327.8009948730469 75.84500122070312,-273.52398681640625 75.84500122070312,-164.9739990234375 C75.84500122070312,-147.2989959716797 74.85099792480469,-130.9510040283203 72.86299896240234,-115.927001953125 C70.87300109863281,-100.90399932861328 67.26300048828125,-86.24700164794922 62.0369987487793,-71.96199798583984 C56.80699920654297,-57.67399978637695 50.106998443603516,-45.56100082397461 41.930999755859375,-35.61800003051758 C33.75699996948242,-25.676000595092773 23.114999771118164,-17.68600082397461 10.006999969482422,-11.64799976348877 C-3.1029999256134033,-5.610000133514404 -18.128000259399414,-2.5899999141693115 -35.064998626708984,-2.5899999141693115 C-52.00299835205078,-2.5899999141693115 -67.0270004272461,-5.572000026702881 -80.13500213623047,-11.538000106811523z M-13.081999778747559,-42.68899917602539 C-6.5279998779296875,-45.56100082397461 -1.00600004196167,-49.316001892089844 3.489000082015991,-53.95600128173828 C7.980999946594238,-58.59600067138672 11.883999824523926,-64.375 15.197999954223633,-71.29900360107422 C18.511999130249023,-78.22100067138672 21.12700080871582,-85.21800231933594 23.042999267578125,-92.28800201416016 C24.95400047302246,-99.35700225830078 26.465999603271484,-107.34500122070312 27.56999969482422,-116.25900268554688 C28.673999786376953,-125.16899871826172 29.410999298095703,-133.34300231933594 29.7810001373291,-140.78199768066406 C30.145999908447266,-148.21800231933594 30.33300018310547,-156.28199768066406 30.33300018310547,-164.9739990234375 C30.33300018310547,-174.10499572753906 30.145999908447266,-182.53799438476562 29.7810001373291,-190.27099609375 C29.410999298095703,-198.0030059814453 28.638999938964844,-206.322998046875 27.461000442504883,-215.23599243164062 C26.2810001373291,-224.14599609375 24.731000900268555,-232.13699340820312 22.81999969482422,-239.20700073242188 C20.90399932861328,-246.27699279785156 18.292999267578125,-253.197998046875 14.979000091552734,-259.9739990234375 C11.664999961853027,-266.74798583984375 7.761000156402588,-272.41900634765625 3.2690000534057617,-276.9859924316406 C-1.225000023841858,-281.54998779296875 -6.711999893188477,-285.19500732421875 -13.192000389099121,-287.9230041503906 C-19.673999786376953,-290.6470031738281 -26.964000701904297,-292.010009765625 -35.064998626708984,-292.010009765625 C-43.16699981689453,-292.010009765625 -50.457000732421875,-290.6470031738281 -56.9370002746582,-287.9230041503906 C-63.41899871826172,-285.19500732421875 -68.86699676513672,-281.5889892578125 -73.28500366210938,-277.0979919433594 C-77.70500183105469,-272.60198974609375 -81.60900115966797,-266.968994140625 -84.99500274658203,-260.19500732421875 C-88.38500213623047,-253.41900634765625 -90.9990005493164,-246.4980010986328 -92.83899688720703,-239.42799377441406 C-94.68099975585938,-232.35800170898438 -96.19100189208984,-224.32899475097656 -97.36699676513672,-215.3459930419922 C-98.5469970703125,-206.36099243164062 -99.3219985961914,-198.0030059814453 -99.68699645996094,-190.27099609375 C-100.05699920654297,-182.53799438476562 -100.23899841308594,-174.10499572753906 -100.23899841308594,-164.9739990234375 C-100.23899841308594,-156.28199768066406 -100.05699920654297,-148.18299865722656 -99.68699645996094,-140.6719970703125 C-99.3219985961914,-133.16000366210938 -98.58300018310547,-124.947998046875 -97.47699737548828,-116.03800201416016 C-96.37300109863281,-107.125 -94.86499786376953,-99.13600158691406 -92.9489974975586,-92.06700134277344 C-91.03500366210938,-84.99700164794922 -88.41899871826172,-78 -85.1050033569336,-71.0780029296875 C-81.79100036621094,-64.15399932861328 -77.92500305175781,-58.409000396728516 -73.50700378417969,-53.84600067138672 C-69.08899688720703,-49.27899932861328 -63.60300064086914,-45.56100082397461 -57.047000885009766,-42.68899917602539 C-50.494998931884766,-39.816001892089844 -43.16699981689453,-38.37900161743164 -35.064998626708984,-38.37900161743164 C-26.964000701904297,-38.37900161743164 -19.63599967956543,-39.816001892089844 -13.081999778747559,-42.68899917602539z"/></g><g opacity="1" transform="matrix(1,0,0,1,0,0)"><path fill="rgb(26,46,53)" fill-opacity="1" d=" M266.72900390625,-12.531999588012695 C262.3110046386719,-16.06599998474121 260.10101318359375,-20.926000595092773 260.10101318359375,-27.11199951171875 C260.10101318359375,-27.11199951171875 260.10101318359375,-75.93900299072266 260.10101318359375,-75.93900299072266 C260.10101318359375,-75.93900299072266 134.17100524902344,-75.93900299072266 134.17100524902344,-75.93900299072266 C127.39199829101562,-75.93900299072266 121.90899658203125,-78.22100067138672 117.71099853515625,-82.78800201416016 C113.51300048828125,-87.35199737548828 111.41500091552734,-92.72899627685547 111.41500091552734,-98.91600036621094 C111.41500091552734,-103.7760009765625 112.81300354003906,-108.33999633789062 115.61100006103516,-112.61299896240234 C115.61100006103516,-112.61299896240234 236.24099731445312,-302.1730041503906 236.24099731445312,-302.1730041503906 C245.2220001220703,-316.1650085449219 257.2300109863281,-323.1619873046875 272.2539978027344,-323.1619873046875 C281.0899963378906,-323.1619873046875 288.4530029296875,-320.5830078125 294.3450012207031,-315.4289855957031 C300.2349853515625,-310.2720031738281 303.1830139160156,-302.614990234375 303.1830139160156,-292.4519958496094 C303.1830139160156,-292.4519958496094 303.1830139160156,-108.19499969482422 303.1830139160156,-108.19499969482422 C303.1830139160156,-108.19499969482422 335.2179870605469,-108.19499969482422 335.2179870605469,-108.19499969482422 C340.37200927734375,-108.19499969482422 344.3489990234375,-106.61000061035156 347.1470031738281,-103.44499969482422 C349.94500732421875,-100.2760009765625 351.34600830078125,-96.48500061035156 351.34600830078125,-92.06700134277344 C351.34600830078125,-87.64800262451172 349.94500732421875,-83.85399627685547 347.1470031738281,-80.68900299072266 C344.3489990234375,-77.51899719238281 340.37200927734375,-75.93900299072266 335.2179870605469,-75.93900299072266 C335.2179870605469,-75.93900299072266 302.96099853515625,-75.93900299072266 302.96099853515625,-75.93900299072266 C302.96099853515625,-75.93900299072266 302.96099853515625,-27.11199951171875 302.96099853515625,-27.11199951171875 C302.96099853515625,-20.926000595092773 300.82598876953125,-16.06599998474121 296.5559997558594,-12.531999588012695 C292.281005859375,-8.996000289916992 287.3500061035156,-7.230000019073486 281.7539978027344,-7.230000019073486 C276.15301513671875,-7.230000019073486 271.1470031738281,-8.996000289916992 266.72900390625,-12.531999588012695z M260.10101318359375,-108.19499969482422 C260.10101318359375,-108.19499969482422 260.10101318359375,-277.8710021972656 260.10101318359375,-277.8710021972656 C260.10101318359375,-277.8710021972656 154.4949951171875,-108.19499969482422 154.4949951171875,-108.19499969482422 C154.4949951171875,-108.19499969482422 260.10101318359375,-108.19499969482422 260.10101318359375,-108.19499969482422z"/></g></g><g transform="matrix(0.9999967813491821,-0.0025416610296815634,0.0025416610296815634,0.9999967813491821,480.2833557128906,422.105224609375)" opacity="1" style="display: block;"><g opacity="1" transform="matrix(1,0,0,1,0,0)"><path fill="rgb(255,255,255)" fill-opacity="1" d=" M42.948001861572266,-111.6719970703125 C42.948001861572266,-111.6719970703125 67.12277221679688,-83.86707305908203 73.34783935546875,-53.62513732910156 C79.57290649414062,-23.38319969177246 78.03829956054688,-2.709122896194458 69.66307067871094,5.881611347198486 C61.287837982177734,14.472346305847168 51.80376052856445,12.368241310119629 45.97114181518555,5.765681743621826 C40.138526916503906,-0.8358956575393677 45.698856353759766,-26.638126373291016 45.698856353759766,-26.638126373291016 C45.698856353759766,-26.638126373291016 34.60578155517578,-49.54075241088867 19.697885513305664,-65.0702133178711 C4.842812538146973,-80.54109954833984 2.0160000324249268,-82.9229965209961 2.0160000324249268,-82.9229965209961 C2.0160000324249268,-82.9229965209961 22.399999618530273,-111.19200134277344 42.948001861572266,-111.6719970703125z"/><path stroke-linecap="round" stroke-linejoin="round" fill-opacity="0" stroke="rgb(26,46,53)" stroke-opacity="1" stroke-width="1.113" d=" M42.948001861572266,-111.6719970703125 C42.948001861572266,-111.6719970703125 67.12277221679688,-83.86707305908203 73.34783935546875,-53.62513732910156 C79.57290649414062,-23.38319969177246 78.03829956054688,-2.709122896194458 69.66307067871094,5.881611347198486 C61.287837982177734,14.472346305847168 51.80376052856445,12.368241310119629 45.97114181518555,5.765681743621826 C40.138526916503906,-0.8358956575393677 45.698856353759766,-26.638126373291016 45.698856353759766,-26.638126373291016 C45.698856353759766,-26.638126373291016 34.60578155517578,-49.54075241088867 19.697885513305664,-65.0702133178711 C4.842812538146973,-80.54109954833984 2.0160000324249268,-82.9229965209961 2.0160000324249268,-82.9229965209961 C2.0160000324249268,-82.9229965209961 22.399999618530273,-111.19200134277344 42.948001861572266,-111.6719970703125z"/></g><g opacity="1" transform="matrix(1,0,0,1,0,0)"><path stroke-linecap="round" stroke-linejoin="round" fill-opacity="0" stroke="rgb(26,46,53)" stroke-opacity="1" stroke-width="1.113" d=" M69.66307067871094,5.881611347198486 C69.66307067871094,5.881611347198486 72.3826675415039,-2.637288808822632 71.06256103515625,-15.369597434997559"/></g><g opacity="1" transform="matrix(1,0,0,1,0,0)"><path stroke-linecap="round" stroke-linejoin="round" fill-opacity="0" stroke="rgb(26,46,53)" stroke-opacity="1" stroke-width="1.113" d=" M56.228416442871094,10.364070892333984 C56.228416442871094,10.364070892333984 60.424537658691406,1.177107572555542 59.40155792236328,-13.645256042480469"/></g><g opacity="1" transform="matrix(1,0,0,1,0,0)"><g opacity="1" transform="matrix(1,0,0,1,0,0)"><path fill="rgb(170,255,0)" fill-opacity="1" d=" M41.657135009765625,-56.542030334472656 C41.108604431152344,-61.91539001464844 50.282798767089844,-73.42620086669922 64.04242706298828,-79.43923950195312 C66.38959503173828,-74.77151489257812 68.58577728271484,-69.7469253540039 70.35215759277344,-64.59273529052734 C66.58628845214844,-63.468990325927734 59.84299850463867,-61.211849212646484 54.90614318847656,-57.89472198486328 C47.678401947021484,-53.03811264038086 42.28123092651367,-50.427181243896484 41.657135009765625,-56.542030334472656z"/><path stroke-linecap="round" stroke-linejoin="round" fill-opacity="0" stroke="rgb(26,46,53)" stroke-opacity="1" stroke-width="1.113" d=" M41.657135009765625,-56.542030334472656 C41.108604431152344,-61.91539001464844 50.282798767089844,-73.42620086669922 64.04242706298828,-79.43923950195312 C66.38959503173828,-74.77151489257812 68.58577728271484,-69.7469253540039 70.35215759277344,-64.59273529052734 C66.58628845214844,-63.468990325927734 59.84299850463867,-61.211849212646484 54.90614318847656,-57.89472198486328 C47.678401947021484,-53.03811264038086 42.28123092651367,-50.427181243896484 41.657135009765625,-56.542030334472656z"/></g><g opacity="1" transform="matrix(1,0,0,1,0,0)"><path fill="rgb(170,255,0)" fill-opacity="1" d=" M44.31330871582031,-110.06257629394531 C46.36330795288086,-107.54757690429688 50.36936569213867,-102.36687469482422 54.85836410522461,-95.45986938476562 C51.1883659362793,-94.09986877441406 47.19630813598633,-92.1165771484375 43.05830764770508,-89.13457489013672 C28.155309677124023,-78.39757537841797 25.195308685302734,-77.07559204101562 28.988309860229492,-90.83659362792969 C31.349308013916016,-99.40359497070312 38.11430740356445,-105.8085708618164 44.31330871582031,-110.06257629394531z"/><path stroke-linecap="round" stroke-linejoin="round" fill-opacity="0" stroke="rgb(26,46,53)" stroke-opacity="1" stroke-width="1.113" d=" M44.31330871582031,-110.06257629394531 C46.36330795288086,-107.54757690429688 50.36936569213867,-102.36687469482422 54.85836410522461,-95.45986938476562 C51.1883659362793,-94.09986877441406 47.19630813598633,-92.1165771484375 43.05830764770508,-89.13457489013672 C28.155309677124023,-78.39757537841797 25.195308685302734,-77.07559204101562 28.988309860229492,-90.83659362792969 C31.349308013916016,-99.40359497070312 38.11430740356445,-105.8085708618164 44.31330871582031,-110.06257629394531z"/></g></g></g><g transform="matrix(0.9999995231628418,-0.0009531237883493304,0.0009531237883493304,0.9999995231628418,480.09295654296875,421.88116455078125)" opacity="1" style="display: block;"><g opacity="1" transform="matrix(1,0,0,1,0,0)"><path fill="rgb(255,255,255)" fill-opacity="1" d=" M-125.58899688720703,-96.74700164794922 C-125.58899688720703,-96.74700164794922 -147.16677856445312,-66.26795959472656 -150.08053588867188,-35.53091812133789 C-152.99429321289062,-4.793869972229004 -149.3046417236328,15.669527053833008 -140.04896545410156,23.302446365356445 C-130.7932891845703,30.935365676879883 -121.5929183959961,27.816238403320312 -116.50956726074219,20.621232986450195 C-111.42620849609375,13.426225662231445 -119.74715423583984,-11.621066093444824 -119.74715423583984,-11.621066093444824 C-119.74715423583984,-11.621066093444824 -111.16119384765625,-35.71950149536133 -97.89344024658203,-52.6649284362793 C-84.62667083740234,-69.6103515625 -82.03500366210938,-72.1520004272461 -82.03500366210938,-72.1520004272461 C-82.03500366210938,-72.1520004272461 -105.09300231933594,-98.28399658203125 -125.58899688720703,-96.74700164794922z"/><path stroke-linecap="round" stroke-linejoin="round" fill-opacity="0" stroke="rgb(26,46,53)" stroke-opacity="1" stroke-width="1.113" d=" M-125.58899688720703,-96.74700164794922 C-125.58899688720703,-96.74700164794922 -147.16677856445312,-66.26795959472656 -150.08053588867188,-35.53091812133789 C-152.99429321289062,-4.793869972229004 -149.3046417236328,15.669527053833008 -140.04896545410156,23.302446365356445 C-130.7932891845703,30.935365676879883 -121.5929183959961,27.816238403320312 -116.50956726074219,20.621232986450195 C-111.42620849609375,13.426225662231445 -119.74715423583984,-11.621066093444824 -119.74715423583984,-11.621066093444824 C-119.74715423583984,-11.621066093444824 -111.16119384765625,-35.71950149536133 -97.89344024658203,-52.6649284362793 C-84.62667083740234,-69.6103515625 -82.03500366210938,-72.1520004272461 -82.03500366210938,-72.1520004272461 C-82.03500366210938,-72.1520004272461 -105.09300231933594,-98.28399658203125 -125.58899688720703,-96.74700164794922z"/></g><g opacity="1" transform="matrix(1,0,0,1,0,0)"><path stroke-linecap="round" stroke-linejoin="round" fill-opacity="0" stroke="rgb(26,46,53)" stroke-opacity="1" stroke-width="1.113" d=" M-140.04896545410156,23.302446365356445 C-140.04896545410156,23.302446365356445 -143.67543029785156,15.127947807312012 -143.7412567138672,2.3274314403533936"/></g><g opacity="1" transform="matrix(1,0,0,1,0,0)"><path stroke-linecap="round" stroke-linejoin="round" fill-opacity="0" stroke="rgb(26,46,53)" stroke-opacity="1" stroke-width="1.113" d=" M-126.20841217041016,26.30308723449707 C-126.20841217041016,26.30308723449707 -131.3733673095703,17.625852584838867 -131.9623260498047,2.779486656188965"/></g><g opacity="1" transform="matrix(1,0,0,1,0,0)"><g opacity="1" transform="matrix(1,0,0,1,0,0)"><path fill="rgb(170,255,0)" fill-opacity="1" d=" M-118.8640365600586,-41.8433837890625 C-118.88057708740234,-47.24597930908203 -129.20120239257812,-57.752723693847656 -143.52845764160156,-62.271705627441406 C-145.36700439453125,-57.37928009033203 -147.00672912597656,-52.20256805419922 -148.2241668701172,-46.89116668701172 C-144.36190795898438,-46.167179107666016 -137.44078063964844,-44.58576965332031 -132.18357849121094,-41.80257034301758 C-124.48701477050781,-37.72816467285156 -118.84521484375,-35.69598388671875 -118.8640365600586,-41.8433837890625z"/><path stroke-linecap="round" stroke-linejoin="round" fill-opacity="0" stroke="rgb(26,46,53)" stroke-opacity="1" stroke-width="1.113" d=" M-118.8640365600586,-41.8433837890625 C-118.88057708740234,-47.24597930908203 -129.20120239257812,-57.752723693847656 -143.52845764160156,-62.271705627441406 C-145.36700439453125,-57.37928009033203 -147.00672912597656,-52.20256805419922 -148.2241668701172,-46.89116668701172 C-144.36190795898438,-46.167179107666016 -137.44078063964844,-44.58576965332031 -132.18357849121094,-41.80257034301758 C-124.48701477050781,-37.72816467285156 -118.84521484375,-35.69598388671875 -118.8640365600586,-41.8433837890625z"/></g><g opacity="1" transform="matrix(1,0,0,1,0,0)"><path fill="rgb(170,255,0)" fill-opacity="1" d=" M-126.8770980834961,-94.82486724853516 C-128.6700897216797,-92.1208724975586 -132.1527862548828,-86.56026458740234 -135.9427947998047,-79.24626159667969 C-132.15679931640625,-78.25226593017578 -127.98709869384766,-76.68186950683594 -123.57609558105469,-74.1208724975586 C-107.69109344482422,-64.89786529541016 -104.60275268554688,-63.88577651977539 -109.72675323486328,-77.20877838134766 C-112.91675567626953,-85.50377655029297 -120.29109954833984,-91.19986724853516 -126.8770980834961,-94.82486724853516z"/><path stroke-linecap="round" stroke-linejoin="round" fill-opacity="0" stroke="rgb(26,46,53)" stroke-opacity="1" stroke-width="1.113" d=" M-126.8770980834961,-94.82486724853516 C-128.6700897216797,-92.1208724975586 -132.1527862548828,-86.56026458740234 -135.9427947998047,-79.24626159667969 C-132.15679931640625,-78.25226593017578 -127.98709869384766,-76.68186950683594 -123.57609558105469,-74.1208724975586 C-107.69109344482422,-64.89786529541016 -104.60275268554688,-63.88577651977539 -109.72675323486328,-77.20877838134766 C-112.91675567626953,-85.50377655029297 -120.29109954833984,-91.19986724853516 -126.8770980834961,-94.82486724853516z"/></g></g></g><g transform="matrix(1,0,0,1,480,422)" opacity="1" style="display: block;"><g opacity="1" transform="matrix(1,0,0,1,0,0)"><path fill="rgb(255,255,255)" fill-opacity="1" d=" M-127.60700225830078,-122.89800262451172 C-127.60700225830078,-122.89800262451172 -133.947998046875,-101.49600219726562 -131.57000732421875,-92.7770004272461 C-129.19200134277344,-84.05799865722656 -118.09500122070312,-91.98400115966797 -106.99800109863281,-82.47200012207031 C-95.9010009765625,-72.95999908447266 -85.61499786376953,-55.85100173950195 -43.604000091552734,-52.68000030517578 C-1.593000054359436,-49.50899887084961 23.790000915527344,-72.16699981689453 32.50899887084961,-84.8499984741211 C41.22800064086914,-97.53199768066406 40.43600082397461,-112.59300231933594 55.49599838256836,-113.38600158691406 C70.55699920654297,-114.17900085449219 57.874000549316406,-143.5070037841797 53.11800003051758,-148.26300048828125 C53.11800003051758,-148.26300048828125 82.44599914550781,-191.85899353027344 82.44599914550781,-202.95599365234375 C82.44599914550781,-214.05299377441406 54.702999114990234,-211.6750030517578 20.618999481201172,-201.37100219726562 C20.618999481201172,-201.37100219726562 -4.745999813079834,-214.8459930419922 -50.720001220703125,-206.91900634765625 C-96.69400024414062,-198.9929962158203 -110.16899871826172,-185.51800537109375 -110.16899871826172,-185.51800537109375 C-110.16899871826172,-185.51800537109375 -167.24000549316406,-178.38400268554688 -171.2030029296875,-171.25 C-175.16600036621094,-164.11599731445312 -163.2760009765625,-133.9949951171875 -127.60700225830078,-122.89800262451172z"/><path stroke-linecap="butt" stroke-linejoin="miter" fill-opacity="0" stroke-miterlimit="10" stroke="rgb(26,46,53)" stroke-opacity="1" stroke-width="1.113" d=" M-127.60700225830078,-122.89800262451172 C-127.60700225830078,-122.89800262451172 -133.947998046875,-101.49600219726562 -131.57000732421875,-92.7770004272461 C-129.19200134277344,-84.05799865722656 -118.09500122070312,-91.98400115966797 -106.99800109863281,-82.47200012207031 C-95.9010009765625,-72.95999908447266 -85.61499786376953,-55.85100173950195 -43.604000091552734,-52.68000030517578 C-1.593000054359436,-49.50899887084961 23.790000915527344,-72.16699981689453 32.50899887084961,-84.8499984741211 C41.22800064086914,-97.53199768066406 40.43600082397461,-112.59300231933594 55.49599838256836,-113.38600158691406 C70.55699920654297,-114.17900085449219 57.874000549316406,-143.5070037841797 53.11800003051758,-148.26300048828125 C53.11800003051758,-148.26300048828125 82.44599914550781,-191.85899353027344 82.44599914550781,-202.95599365234375 C82.44599914550781,-214.05299377441406 54.702999114990234,-211.6750030517578 20.618999481201172,-201.37100219726562 C20.618999481201172,-201.37100219726562 -4.745999813079834,-214.8459930419922 -50.720001220703125,-206.91900634765625 C-96.69400024414062,-198.9929962158203 -110.16899871826172,-185.51800537109375 -110.16899871826172,-185.51800537109375 C-110.16899871826172,-185.51800537109375 -167.24000549316406,-178.38400268554688 -171.2030029296875,-171.25 C-175.16600036621094,-164.11599731445312 -163.2760009765625,-133.9949951171875 -127.60700225830078,-122.89800262451172z"/></g><g opacity="1" transform="matrix(1,0,0,1,0,0)"><g opacity="1" transform="matrix(1,0,0,1,0,0)"><path fill="rgb(170,255,0)" fill-opacity="1" d=" M36.33100128173828,-186.41799926757812 C15.835000038146973,-172.58299255371094 23.007999420166016,-158.7480010986328 32.23099899291992,-151.06199645996094 C37.862998962402344,-146.36900329589844 46.91899871826172,-147.0279998779297 53.12900161743164,-148.25100708007812 C53.125999450683594,-148.25399780273438 53.12099838256836,-148.25999450683594 53.11800003051758,-148.26300048828125 C53.11800003051758,-148.26300048828125 82.44599914550781,-191.85899353027344 82.44599914550781,-202.95599365234375 C82.44599914550781,-202.95599365234375 56.82699966430664,-200.2530059814453 36.33100128173828,-186.41799926757812z"/><path stroke-linecap="butt" stroke-linejoin="miter" fill-opacity="0" stroke-miterlimit="10" stroke="rgb(26,46,53)" stroke-opacity="1" stroke-width="1.113" d=" M36.33100128173828,-186.41799926757812 C15.835000038146973,-172.58299255371094 23.007999420166016,-158.7480010986328 32.23099899291992,-151.06199645996094 C37.862998962402344,-146.36900329589844 46.91899871826172,-147.0279998779297 53.12900161743164,-148.25100708007812 C53.125999450683594,-148.25399780273438 53.12099838256836,-148.25999450683594 53.11800003051758,-148.26300048828125 C53.11800003051758,-148.26300048828125 82.44599914550781,-191.85899353027344 82.44599914550781,-202.95599365234375 C82.44599914550781,-202.95599365234375 56.82699966430664,-200.2530059814453 36.33100128173828,-186.41799926757812z"/></g><g opacity="1" transform="matrix(1,0,0,1,0,0)"><path fill="rgb(170,255,0)" fill-opacity="1" d=" M-171.5989990234375,-170.24899291992188 C-174.14300537109375,-161.67100524902344 -161.81700134277344,-133.54100036621094 -127.60700225830078,-122.89800262451172 C-127.60700225830078,-122.89800262451172 -101.50599670410156,-125.44200134277344 -110.21700286865234,-146.4510040283203 C-118.34400177001953,-166.05099487304688 -159.46200561523438,-170.93099975585938 -171.5989990234375,-170.24899291992188z"/><path stroke-linecap="butt" stroke-linejoin="miter" fill-opacity="0" stroke-miterlimit="10" stroke="rgb(26,46,53)" stroke-opacity="1" stroke-width="1.113" d=" M-171.5989990234375,-170.24899291992188 C-174.14300537109375,-161.67100524902344 -161.81700134277344,-133.54100036621094 -127.60700225830078,-122.89800262451172 C-127.60700225830078,-122.89800262451172 -101.50599670410156,-125.44200134277344 -110.21700286865234,-146.4510040283203 C-118.34400177001953,-166.05099487304688 -159.46200561523438,-170.93099975585938 -171.5989990234375,-170.24899291992188z"/></g></g></g><g transform="matrix(1,0,0,1,480,422.3587646484375)" opacity="1" style="display: block;"><g opacity="1" transform="matrix(1,0,0,1,0,0)"><g opacity="1" transform="matrix(1,0,0,1,0,0)"><g opacity="1" transform="matrix(1,0,0,1,0,0)"><path fill="rgb(170,255,0)" fill-opacity="1" d=" M-50.720001220703125,-206.91900634765625 C-53.428001403808594,-206.45199584960938 -56.013999938964844,-205.96499633789062 -58.500999450683594,-205.46299743652344 C-54.402000427246094,-184.6699981689453 -47.60900115966797,-150.03799438476562 -41.55500030517578,-150.03799438476562 C-35.28499984741211,-150.03799438476562 -30.87299919128418,-188 -28.89299964904785,-209.27499389648438 C-35.54999923706055,-209 -42.823001861572266,-208.27999877929688 -50.720001220703125,-206.91900634765625z"/><path stroke-linecap="butt" stroke-linejoin="miter" fill-opacity="0" stroke-miterlimit="10" stroke="rgb(26,46,53)" stroke-opacity="1" stroke-width="1.113" d=" M-50.720001220703125,-206.91900634765625 C-53.428001403808594,-206.45199584960938 -56.013999938964844,-205.96499633789062 -58.500999450683594,-205.46299743652344 C-54.402000427246094,-184.6699981689453 -47.60900115966797,-150.03799438476562 -41.55500030517578,-150.03799438476562 C-35.28499984741211,-150.03799438476562 -30.87299919128418,-188 -28.89299964904785,-209.27499389648438 C-35.54999923706055,-209 -42.823001861572266,-208.27999877929688 -50.720001220703125,-206.91900634765625z"/></g><g opacity="1" transform="matrix(1,0,0,1,0,0)"><path fill="rgb(170,255,0)" fill-opacity="1" d=" M-74.3489990234375,-156.18600463867188 C-68.04399871826172,-159.89500427246094 -68.98699951171875,-187.75100708007812 -69.98899841308594,-202.86300659179688 C-77.64299774169922,-200.9219970703125 -83.96900177001953,-198.86599731445312 -89.1729965209961,-196.875 C-86.87100219726562,-182.72500610351562 -81.06900024414062,-152.23300170898438 -74.3489990234375,-156.18600463867188z"/><path stroke-linecap="butt" stroke-linejoin="miter" fill-opacity="0" stroke-miterlimit="10" stroke="rgb(26,46,53)" stroke-opacity="1" stroke-width="1.113" d=" M-74.3489990234375,-156.18600463867188 C-68.04399871826172,-159.89500427246094 -68.98699951171875,-187.75100708007812 -69.98899841308594,-202.86300659179688 C-77.64299774169922,-200.9219970703125 -83.96900177001953,-198.86599731445312 -89.1729965209961,-196.875 C-86.87100219726562,-182.72500610351562 -81.06900024414062,-152.23300170898438 -74.3489990234375,-156.18600463867188z"/></g><g opacity="1" transform="matrix(1,0,0,1,0,0)"><path fill="rgb(170,255,0)" fill-opacity="1" d=" M-13.371999740600586,-168.9969940185547 C-6.914999961853027,-166.73699951171875 -3.308000087738037,-189.8990020751953 -1.2649999856948853,-207.73399353027344 C-6.822999954223633,-208.6490020751953 -13.397000312805176,-209.31300354003906 -20.95199966430664,-209.39999389648438 C-21.149999618530273,-194.74600219726562 -20.34600067138672,-171.43699645996094 -13.371999740600586,-168.9969940185547z"/><path stroke-linecap="butt" stroke-linejoin="miter" fill-opacity="0" stroke-miterlimit="10" stroke="rgb(26,46,53)" stroke-opacity="1" stroke-width="1.113" d=" M-13.371999740600586,-168.9969940185547 C-6.914999961853027,-166.73699951171875 -3.308000087738037,-189.8990020751953 -1.2649999856948853,-207.73399353027344 C-6.822999954223633,-208.6490020751953 -13.397000312805176,-209.31300354003906 -20.95199966430664,-209.39999389648438 C-21.149999618530273,-194.74600219726562 -20.34600067138672,-171.43699645996094 -13.371999740600586,-168.9969940185547z"/></g></g><g opacity="1" transform="matrix(1,0,0,1,0,0)"><path fill="rgb(170,255,0)" fill-opacity="1" d=" M-21.9950008392334,-88.8030014038086 C-25.48200035095215,-89.6500015258789 -32.957000732421875,-90.6989974975586 -39.856998443603516,-86.61299896240234 C-40.87699890136719,-86.00900268554688 -41.051998138427734,-84.59200286865234 -40.1870002746582,-83.78199768066406 C-40.1870002746582,-83.78199768066406 -29.236000061035156,-73.51699829101562 -29.236000061035156,-73.51699829101562 C-28.35700035095215,-72.69300079345703 -26.92799949645996,-72.97599792480469 -26.429000854492188,-74.072998046875 C-26.429000854492188,-74.072998046875 -20.83300018310547,-86.36799621582031 -20.83300018310547,-86.36799621582031 C-20.378999710083008,-87.36499786376953 -20.930999755859375,-88.54399871826172 -21.9950008392334,-88.8030014038086z"/><path stroke-linecap="round" stroke-linejoin="round" fill-opacity="0" stroke="rgb(26,46,53)" stroke-opacity="1" stroke-width="1.113" d=" M-21.9950008392334,-88.8030014038086 C-25.48200035095215,-89.6500015258789 -32.957000732421875,-90.6989974975586 -39.856998443603516,-86.61299896240234 C-40.87699890136719,-86.00900268554688 -41.051998138427734,-84.59200286865234 -40.1870002746582,-83.78199768066406 C-40.1870002746582,-83.78199768066406 -29.236000061035156,-73.51699829101562 -29.236000061035156,-73.51699829101562 C-28.35700035095215,-72.69300079345703 -26.92799949645996,-72.97599792480469 -26.429000854492188,-74.072998046875 C-26.429000854492188,-74.072998046875 -20.83300018310547,-86.36799621582031 -20.83300018310547,-86.36799621582031 C-20.378999710083008,-87.36499786376953 -20.930999755859375,-88.54399871826172 -21.9950008392334,-88.8030014038086z"/></g><g opacity="1" transform="matrix(1,0,0,1,0,0)"><path fill="rgb(26,46,53)" fill-opacity="1" d=" M-47.98899841308594,-105.98500061035156 C-46.47700119018555,-102.01899719238281 -47.07400131225586,-98.10800170898438 -49.321998596191406,-97.2509994506836 C-51.56999969482422,-96.39399719238281 -54.617000579833984,-98.91600036621094 -56.12900161743164,-102.88200378417969 C-57.64099884033203,-106.8479995727539 -57.04499816894531,-110.75800323486328 -54.797000885009766,-111.61499786376953 C-52.54899978637695,-112.47200012207031 -49.500999450683594,-109.9520034790039 -47.98899841308594,-105.98500061035156z"/></g><g opacity="1" transform="matrix(1,0,0,1,0,0)"><path fill="rgb(26,46,53)" fill-opacity="1" d=" M-18.166000366210938,-108.8219985961914 C-18.947999954223633,-104.6500015258789 -17.665000915527344,-100.90899658203125 -15.300999641418457,-100.46600341796875 C-12.937000274658203,-100.02300262451172 -10.38599967956543,-103.0459976196289 -9.604000091552734,-107.21800231933594 C-8.821999549865723,-111.38999938964844 -10.104999542236328,-115.13200378417969 -12.468999862670898,-115.57499694824219 C-14.833000183105469,-116.01799774169922 -17.384000778198242,-112.99400329589844 -18.166000366210938,-108.8219985961914z"/></g><g opacity="1" transform="matrix(1,0,0,1,0,0)"><path stroke-linecap="round" stroke-linejoin="round" fill-opacity="0" stroke="rgb(26,46,53)" stroke-opacity="1" stroke-width="1.113" d=" M-26.429000854492188,-74.072998046875 C-26.429000854492188,-74.072998046875 -41.04199981689453,-54.21699905395508 -54.3650016784668,-74.20099639892578"/></g><g opacity="1" transform="matrix(1,0,0,1,0,0)"><path stroke-linecap="round" stroke-linejoin="round" fill-opacity="0" stroke="rgb(26,46,53)" stroke-opacity="1" stroke-width="1.113" d=" M-29.236000061035156,-73.51699829101562 C-29.236000061035156,-73.51699829101562 -19.520999908447266,-63.441001892089844 -9.27299976348877,-69.0770034790039 C0.9750000238418579,-74.71299743652344 -5.173999786376953,-83.42500305175781 -5.173999786376953,-83.42500305175781"/></g><g opacity="1" transform="matrix(1,0,0,1,0,0)"><path stroke-linecap="round" stroke-linejoin="round" fill-opacity="0" stroke="rgb(26,46,53)" stroke-opacity="1" stroke-width="3.34" d=" M-73.83599853515625,-121.8550033569336 C-73.83599853515625,-121.8550033569336 -70.25,-134.6649932861328 -53.34000015258789,-131.59100341796875"/></g><g opacity="1" transform="matrix(1,0,0,1,0,0)"><path stroke-linecap="round" stroke-linejoin="round" fill-opacity="0" stroke="rgb(26,46,53)" stroke-opacity="1" stroke-width="3.34" d=" M-22.59600067138672,-133.63999938964844 C-22.59600067138672,-133.63999938964844 -9.78499984741211,-141.32699584960938 2,-129.0290069580078"/></g><g opacity="1" transform="matrix(1,0,0,1,0,0)"><path stroke-linecap="round" stroke-linejoin="miter" fill-opacity="0" stroke-miterlimit="10" stroke="rgb(26,46,53)" stroke-opacity="1" stroke-width="1.113" d=" M-83.5719985961914,-87.52400207519531 C-83.5719985961914,-87.52400207519531 -71.27400207519531,-84.44999694824219 -71.27400207519531,-84.44999694824219"/></g><g opacity="1" transform="matrix(1,0,0,1,0,0)"><path stroke-linecap="round" stroke-linejoin="miter" fill-opacity="0" stroke-miterlimit="10" stroke="rgb(26,46,53)" stroke-opacity="1" stroke-width="1.113" d=" M-72.81199645996094,-79.83799743652344 C-72.81199645996094,-79.83799743652344 -83.5719985961914,-77.78800201416016 -83.5719985961914,-77.78800201416016"/></g><g opacity="1" transform="matrix(1,0,0,1,0,0)"><path stroke-linecap="round" stroke-linejoin="miter" fill-opacity="0" stroke-miterlimit="10" stroke="rgb(26,46,53)" stroke-opacity="1" stroke-width="1.113" d=" M-70.76200103759766,-74.20099639892578 C-70.76200103759766,-74.20099639892578 -78.447998046875,-70.10199737548828 -78.447998046875,-70.10199737548828"/></g><g opacity="1" transform="matrix(1,0,0,1,0,0)"><path stroke-linecap="round" stroke-linejoin="miter" fill-opacity="0" stroke-miterlimit="10" stroke="rgb(26,46,53)" stroke-opacity="1" stroke-width="1.113" d=" M7.124000072479248,-93.16000366210938 C7.124000072479248,-93.16000366210938 17.884000778198242,-95.72200012207031 17.884000778198242,-95.72200012207031"/></g><g opacity="1" transform="matrix(1,0,0,1,0,0)"><path stroke-linecap="round" stroke-linejoin="miter" fill-opacity="0" stroke-miterlimit="10" stroke="rgb(26,46,53)" stroke-opacity="1" stroke-width="1.113" d=" M9.17300033569336,-88.03600311279297 C9.17300033569336,-88.03600311279297 16.347000122070312,-88.03600311279297 16.347000122070312,-88.03600311279297"/></g><g opacity="1" transform="matrix(1,0,0,1,0,0)"><path stroke-linecap="round" stroke-linejoin="miter" fill-opacity="0" stroke-miterlimit="10" stroke="rgb(26,46,53)" stroke-opacity="1" stroke-width="1.113" d=" M10.711000442504883,-82.91200256347656 C10.711000442504883,-82.91200256347656 20.445999145507812,-80.3499984741211 20.445999145507812,-80.3499984741211"/></g></g></g></g></svg>